<svg class="main-svg" xmlns="http://www.w3.org/2000/svg" xmlns:xlink="http://www.w3.org/1999/xlink" width="350" height="450" style="" viewBox="0 0 350 450"><rect x="0" y="0" width="350" height="450" style="fill: rgb(0, 0, 0); fill-opacity: 0;"/><defs id="defs-5eb73c"><g class="clips"><clipPath id="clip5eb73cxyplot" class="plotclip"><rect width="165" height="270"/></clipPath><clipPath class="axesclip" id="clip5eb73cx"><rect x="105" y="0" width="165" height="450"/></clipPath><clipPath class="axesclip" id="clip5eb73cy"><rect x="0" y="100" width="350" height="270"/></clipPath><clipPath class="axesclip" id="clip5eb73cxy"><rect x="105" y="100" width="165" height="270"/></clipPath></g><g class="gradients"/><g class="patterns"/></defs><g class="bglayer"><rect class="bg" x="105" y="100" width="165" height="270" style="fill: rgb(0, 0, 0); fill-opacity: 0; stroke-width: 0;"/></g><g class="layer-below"><g class="imagelayer"/><g class="shapelayer"/></g><g class="cartesianlayer"><g class="subplot xy"><g class="layer-subplot"><g class="shapelayer"/><g class="imagelayer"/></g><g class="gridlayer"><g class="x"><path class="xgrid crisp" transform="translate(113.25,0)" d="M0,100v270" style="stroke: rgb(255, 255, 255); stroke-opacity: 1; stroke-width: 1px;"/><path class="xgrid crisp" transform="translate(187.5,0)" d="M0,100v270" style="stroke: rgb(255, 255, 255); stroke-opacity: 1; stroke-width: 1px;"/></g><g class="y"/></g><g class="zerolinelayer"><path class="xzl zl crisp" transform="translate(261.75,0)" d="M0,100v270" style="stroke: rgb(255, 255, 255); stroke-opacity: 1; stroke-width: 2px;"/></g><path class="xlines-below"/><path class="ylines-below"/><g class="overlines-below"/><g class="xaxislayer-below"/><g class="yaxislayer-below"/><g class="overaxes-below"/><g class="plot" transform="translate(105,100)" clip-path="url(#clip5eb73cxyplot)"><g class="boxlayer mlayer"><g class="trace boxes" style="opacity: 1;"><path class="box" d="M93.44,267.66V255.47M93.44,267.66V255.47H93.44V267.66ZM93.44,261.56H93.44M93.44,261.56H93.44M93.44,262.78V260.34M93.44,262.78V260.34" style="vector-effect: non-scaling-stroke; stroke-width: 1px; stroke: rgb(89, 52, 14); stroke-opacity: 1; fill: rgb(166, 97, 26); fill-opacity: 1;"/></g><g class="trace boxes" style="opacity: 1;"><path class="box" d="M88.92,250.78V238.59M88.92,250.78V238.59H88.92V250.78ZM88.92,244.69H88.92M88.92,244.69H88.92M88.92,245.91V243.47M88.92,245.91V243.47" style="vector-effect: non-scaling-stroke; stroke-width: 1px; stroke: rgb(89, 52, 14); stroke-opacity: 1; fill: rgb(166, 97, 26); fill-opacity: 1;"/></g><g class="trace boxes" style="opacity: 1;"><path class="box" d="M90.88,233.91V221.72M90.88,233.91V221.72H90.88V233.91ZM90.88,227.81H90.88M90.88,227.81H90.88M90.88,229.03V226.59M90.88,229.03V226.59" style="vector-effect: non-scaling-stroke; stroke-width: 1px; stroke: rgb(89, 52, 14); stroke-opacity: 1; fill: rgb(166, 97, 26); fill-opacity: 1;"/></g><g class="trace boxes" style="opacity: 1;"><path class="box" d="M78.12,217.03V204.84M78.12,217.03V204.84H78.12V217.03ZM78.12,210.94H78.12M78.12,210.94H78.12M78.12,212.16V209.72M78.12,212.16V209.72" style="vector-effect: non-scaling-stroke; stroke-width: 1px; stroke: rgb(89, 52, 14); stroke-opacity: 1; fill: rgb(166, 97, 26); fill-opacity: 1;"/></g><g class="trace boxes" style="opacity: 1;"><path class="box" d="M67.3,200.16V187.97M67.3,200.16V187.97H67.3V200.16ZM67.3,194.06H67.3M67.3,194.06H67.3M67.3,195.28V192.84M67.3,195.28V192.84" style="vector-effect: non-scaling-stroke; stroke-width: 1px; stroke: rgb(89, 52, 14); stroke-opacity: 1; fill: rgb(166, 97, 26); fill-opacity: 1;"/></g><g class="trace boxes" style="opacity: 1;"><path class="box" d="M63.2,183.28V171.09M71.49,183.28V171.09H51.66V183.28ZM71.49,177.19H80.7M51.66,177.19H40.83M80.7,178.41V175.97M40.83,178.41V175.97" style="vector-effect: non-scaling-stroke; stroke-width: 1px; stroke: rgb(117, 100, 56); stroke-opacity: 1; fill: rgb(223, 194, 125); fill-opacity: 1;"/></g><g class="trace boxes" style="opacity: 1;"><path class="box" d="M27.8,166.41V154.22M72.39,166.41V154.22H24.55V166.41ZM72.39,160.31H87.25M24.55,160.31H23.47M87.25,161.53V159.09M23.47,161.53V159.09" style="vector-effect: non-scaling-stroke; stroke-width: 1px; stroke: rgb(117, 100, 56); stroke-opacity: 1; fill: rgb(223, 194, 125); fill-opacity: 1;"/></g><g class="trace boxes" style="opacity: 1;"><path class="box" d="M56.51,149.53V137.34M77.86,149.53V137.34H49.33V149.53ZM77.86,143.44H95.71M49.33,143.44H43.35M95.71,144.66V142.22M43.35,144.66V142.22" style="vector-effect: non-scaling-stroke; stroke-width: 1px; stroke: rgb(117, 100, 56); stroke-opacity: 1; fill: rgb(223, 194, 125); fill-opacity: 1;"/></g><g class="trace boxes" style="opacity: 1;"><path class="box" d="M62.83,132.66V120.47M62.83,132.66V120.47H62.83V132.66ZM62.83,126.56H62.83M62.83,126.56H62.83M62.83,127.78V125.34M62.83,127.78V125.34" style="vector-effect: non-scaling-stroke; stroke-width: 1px; stroke: rgb(117, 100, 56); stroke-opacity: 1; fill: rgb(223, 194, 125); fill-opacity: 1;"/></g><g class="trace boxes" style="opacity: 1;"><path class="box" d="M82.19,115.78V103.59M107.23,115.78V103.59H72.52V115.78ZM107.23,109.69H109.66M72.52,109.69H67.14M109.66,110.91V108.47M67.14,110.91V108.47" style="vector-effect: non-scaling-stroke; stroke-width: 1px; stroke: rgb(54, 91, 85); stroke-opacity: 1; fill: rgb(128, 205, 193); fill-opacity: 1;"/></g><g class="trace boxes" style="opacity: 1;"><path class="box" d="M55.42,98.91V86.72M55.42,98.91V86.72H55.42V98.91ZM55.42,92.81H55.42M55.42,92.81H55.42M55.42,94.03V91.59M55.42,94.03V91.59" style="vector-effect: non-scaling-stroke; stroke-width: 1px; stroke: rgb(54, 91, 85); stroke-opacity: 1; fill: rgb(128, 205, 193); fill-opacity: 1;"/></g><g class="trace boxes" style="opacity: 1;"><path class="box" d="M55.8,82.03V69.84M68.14,82.03V69.84H52.93V82.03ZM68.14,75.94H79.74M52.93,75.94H38.76M79.74,77.16V74.72M38.76,77.16V74.72" style="vector-effect: non-scaling-stroke; stroke-width: 1px; stroke: rgb(54, 91, 85); stroke-opacity: 1; fill: rgb(128, 205, 193); fill-opacity: 1;"/></g><g class="trace boxes" style="opacity: 1;"><path class="box" d="M47.93,65.16V52.97M60.11,65.16V52.97H35.76V65.16ZM60.11,59.06H60.11M35.76,59.06H35.76M60.11,60.28V57.84M35.76,60.28V57.84" style="vector-effect: non-scaling-stroke; stroke-width: 1px; stroke: rgb(54, 91, 85); stroke-opacity: 1; fill: rgb(128, 205, 193); fill-opacity: 1;"/></g><g class="trace boxes" style="opacity: 1;"><path class="box" d="M51.71,48.28V36.09M88.33,48.28V36.09H36.36V48.28ZM88.33,42.19H156.75M36.36,42.19H10.09M156.75,43.41V40.97M10.09,43.41V40.97" style="vector-effect: non-scaling-stroke; stroke-width: 1px; stroke: rgb(5, 47, 41); stroke-opacity: 1; fill: rgb(1, 133, 113); fill-opacity: 1;"/></g><g class="trace boxes" style="opacity: 1;"><path class="box" d="M34.32,31.41V19.22M40.67,31.41V19.22H27.06V31.41ZM40.67,25.31H54.68M27.06,25.31H23.46M54.68,26.53V24.09M23.46,26.53V24.09" style="vector-effect: non-scaling-stroke; stroke-width: 1px; stroke: rgb(5, 47, 41); stroke-opacity: 1; fill: rgb(1, 133, 113); fill-opacity: 1;"/></g><g class="trace boxes" style="opacity: 1;"><path class="box" d="M9.47,14.53V2.34M12.64,14.53V2.34H8.47V14.53ZM12.64,8.44H19.84M8.47,8.44H8.25M19.84,9.66V7.22M8.25,9.66V7.22" style="vector-effect: non-scaling-stroke; stroke-width: 1px; stroke: rgb(5, 47, 41); stroke-opacity: 1; fill: rgb(1, 133, 113); fill-opacity: 1;"/></g></g></g><g class="overplot"/><path class="xlines-above crisp" d="M104,370.5H270" style="fill: none; stroke-width: 1px; stroke: rgb(0, 0, 0); stroke-opacity: 1;"/><path class="ylines-above crisp" d="M104.5,100V370" style="fill: none; stroke-width: 1px; stroke: rgb(0, 0, 0); stroke-opacity: 1;"/><g class="overlines-above"/><g class="xaxislayer-above"><g class="xtick"><text text-anchor="middle" x="0" y="385.4" transform="translate(113.25,0)" style="font-family: 'Times New Roman'; font-size: 12px; fill: rgb(42, 63, 95); fill-opacity: 1; white-space: pre; opacity: 1;">1</text></g><g class="xtick"><text text-anchor="middle" x="0" y="385.4" style="font-family: 'Times New Roman'; font-size: 12px; fill: rgb(42, 63, 95); fill-opacity: 1; white-space: pre; opacity: 1;" transform="translate(187.5,0)">0.5</text></g><g class="xtick"><text text-anchor="middle" x="0" y="385.4" style="font-family: 'Times New Roman'; font-size: 12px; fill: rgb(42, 63, 95); fill-opacity: 1; white-space: pre; opacity: 1;" transform="translate(261.75,0)">0</text></g></g><g class="yaxislayer-above"><g class="ytick"><text text-anchor="end" x="102" y="3.5" transform="translate(0,361.56)" style="font-family: 'Times New Roman'; font-size: 10px; fill: rgb(42, 63, 95); fill-opacity: 1; white-space: pre; opacity: 1;">DAKRNSKSL</text></g><g class="ytick"><text text-anchor="end" x="102" y="3.5" transform="translate(0,344.69)" style="font-family: 'Times New Roman'; font-size: 10px; fill: rgb(42, 63, 95); fill-opacity: 1; white-space: pre; opacity: 1;">EIDVSEVKT</text></g><g class="ytick"><text text-anchor="end" x="102" y="3.5" transform="translate(0,327.81)" style="font-family: 'Times New Roman'; font-size: 10px; fill: rgb(42, 63, 95); fill-opacity: 1; white-space: pre; opacity: 1;">ATKRYPGVM</text></g><g class="ytick"><text text-anchor="end" x="102" y="3.5" transform="translate(0,310.94)" style="font-family: 'Times New Roman'; font-size: 10px; fill: rgb(42, 63, 95); fill-opacity: 1; white-space: pre; opacity: 1;">AAEQRRSTI</text></g><g class="ytick"><text text-anchor="end" x="102" y="3.5" transform="translate(0,294.06)" style="font-family: 'Times New Roman'; font-size: 10px; fill: rgb(42, 63, 95); fill-opacity: 1; white-space: pre; opacity: 1;">ETLNEYKQL</text></g><g class="ytick"><text text-anchor="end" x="102" y="3.5" transform="translate(0,277.19)" style="font-family: 'Times New Roman'; font-size: 10px; fill: rgb(42, 63, 95); fill-opacity: 1; white-space: pre; opacity: 1;">SLLMWITQC</text></g><g class="ytick"><text text-anchor="end" x="102" y="3.5" transform="translate(0,260.31)" style="font-family: 'Times New Roman'; font-size: 10px; fill: rgb(42, 63, 95); fill-opacity: 1; white-space: pre; opacity: 1;">EAAGIGILTV</text></g><g class="ytick"><text text-anchor="end" x="102" y="3.5" transform="translate(0,243.44)" style="font-family: 'Times New Roman'; font-size: 10px; fill: rgb(42, 63, 95); fill-opacity: 1; white-space: pre; opacity: 1;">RGPGRAFVTI</text></g><g class="ytick"><text text-anchor="end" x="102" y="3.5" transform="translate(0,226.56)" style="font-family: 'Times New Roman'; font-size: 10px; fill: rgb(42, 63, 95); fill-opacity: 1; white-space: pre; opacity: 1;">RQISQDVKL</text></g><g class="ytick"><text text-anchor="end" x="102" y="3.5" transform="translate(0,209.69)" style="font-family: 'Times New Roman'; font-size: 10px; fill: rgb(42, 63, 95); fill-opacity: 1; white-space: pre; opacity: 1;">AAGIGILTV</text></g><g class="ytick"><text text-anchor="end" x="102" y="3.5" transform="translate(0,192.81)" style="font-family: 'Times New Roman'; font-size: 10px; fill: rgb(42, 63, 95); fill-opacity: 1; white-space: pre; opacity: 1;">VLRDDLLEA</text></g><g class="ytick"><text text-anchor="end" x="102" y="3.5" transform="translate(0,175.94)" style="font-family: 'Times New Roman'; font-size: 10px; fill: rgb(42, 63, 95); fill-opacity: 1; white-space: pre; opacity: 1;">ILKEPVHGV</text></g><g class="ytick"><text text-anchor="end" x="102" y="3.5" transform="translate(0,159.06)" style="font-family: 'Times New Roman'; font-size: 10px; fill: rgb(42, 63, 95); fill-opacity: 1; white-space: pre; opacity: 1;">CINGVCWTV</text></g><g class="ytick"><text text-anchor="end" x="102" y="3.5" transform="translate(0,142.19)" style="font-family: 'Times New Roman'; font-size: 10px; fill: rgb(42, 63, 95); fill-opacity: 1; white-space: pre; opacity: 1;">LLFGYPVYV</text></g><g class="ytick"><text text-anchor="end" x="102" y="3.5" transform="translate(0,125.31)" style="font-family: 'Times New Roman'; font-size: 10px; fill: rgb(42, 63, 95); fill-opacity: 1; white-space: pre; opacity: 1;">ALWGFFPVL</text></g><g class="ytick"><text text-anchor="end" x="102" y="3.5" transform="translate(0,108.44)" style="font-family: 'Times New Roman'; font-size: 10px; fill: rgb(42, 63, 95); fill-opacity: 1; white-space: pre; opacity: 1;">FLPSDFFPSV</text></g></g><g class="overaxes-above"/></g></g><g class="polarlayer"/><g class="ternarylayer"/><g class="geolayer"/><g class="funnelarealayer"/><g class="pielayer"/><g class="iciclelayer"/><g class="treemaplayer"/><g class="sunburstlayer"/><g class="glimages"/><defs id="topdefs-5eb73c"><g class="clips"/></defs><g class="layer-above"><g class="imagelayer"/><g class="shapelayer"/></g><g class="infolayer"><g class="g-gtitle"/><g class="g-xtitle"><text class="xtitle" x="187.5" y="413.20625" text-anchor="middle" style="font-family: 'Times New Roman'; font-size: 14px; fill: rgb(42, 63, 95); opacity: 1; font-weight: normal; white-space: pre;">AutoDock4</text></g><g class="g-ytitle" transform="translate(0.7998046875,0)"><text class="ytitle" transform="rotate(-90,12.200000000000003,235)" x="12.200000000000003" y="235" text-anchor="middle" style="font-family: 'Times New Roman'; font-size: 14px; fill: rgb(42, 63, 95); opacity: 1; font-weight: normal; white-space: pre;">Peptide</text></g></g></svg>