<svg class="main-svg" xmlns="http://www.w3.org/2000/svg" xmlns:xlink="http://www.w3.org/1999/xlink" width="350" height="450" style="" viewBox="0 0 350 450"><rect x="0" y="0" width="350" height="450" style="fill: rgb(0, 0, 0); fill-opacity: 0;"/><defs id="defs-30732d"><g class="clips"><clipPath id="clip30732dxyplot" class="plotclip"><rect width="165" height="270"/></clipPath><clipPath class="axesclip" id="clip30732dx"><rect x="105" y="0" width="165" height="450"/></clipPath><clipPath class="axesclip" id="clip30732dy"><rect x="0" y="100" width="350" height="270"/></clipPath><clipPath class="axesclip" id="clip30732dxy"><rect x="105" y="100" width="165" height="270"/></clipPath></g><g class="gradients"/><g class="patterns"/></defs><g class="bglayer"><rect class="bg" x="105" y="100" width="165" height="270" style="fill: rgb(0, 0, 0); fill-opacity: 0; stroke-width: 0;"/></g><g class="layer-below"><g class="imagelayer"/><g class="shapelayer"/></g><g class="cartesianlayer"><g class="subplot xy"><g class="layer-subplot"><g class="shapelayer"/><g class="imagelayer"/></g><g class="gridlayer"><g class="x"><path class="xgrid crisp" transform="translate(113.25,0)" d="M0,100v270" style="stroke: rgb(255, 255, 255); stroke-opacity: 1; stroke-width: 1px;"/><path class="xgrid crisp" transform="translate(187.5,0)" d="M0,100v270" style="stroke: rgb(255, 255, 255); stroke-opacity: 1; stroke-width: 1px;"/></g><g class="y"/></g><g class="zerolinelayer"><path class="xzl zl crisp" transform="translate(261.75,0)" d="M0,100v270" style="stroke: rgb(255, 255, 255); stroke-opacity: 1; stroke-width: 2px;"/></g><path class="xlines-below"/><path class="ylines-below"/><g class="overlines-below"/><g class="xaxislayer-below"/><g class="yaxislayer-below"/><g class="overaxes-below"/><g class="plot" transform="translate(105,100)" clip-path="url(#clip30732dxyplot)"><g class="boxlayer mlayer"><g class="trace boxes" style="opacity: 1;"><path class="box" d="M125.86,267.66V255.47M125.86,267.66V255.47H125.86V267.66ZM125.86,261.56H125.86M125.86,261.56H125.86M125.86,262.78V260.34M125.86,262.78V260.34" style="vector-effect: non-scaling-stroke; stroke-width: 1px; stroke: rgb(89, 52, 14); stroke-opacity: 1; fill: rgb(166, 97, 26); fill-opacity: 1;"/></g><g class="trace boxes" style="opacity: 1;"><path class="box" d="M122.27,250.78V238.59M122.27,250.78V238.59H122.27V250.78ZM122.27,244.69H122.27M122.27,244.69H122.27M122.27,245.91V243.47M122.27,245.91V243.47" style="vector-effect: non-scaling-stroke; stroke-width: 1px; stroke: rgb(89, 52, 14); stroke-opacity: 1; fill: rgb(166, 97, 26); fill-opacity: 1;"/></g><g class="trace boxes" style="opacity: 1;"><path class="box" d="M125.48,233.91V221.72M125.48,233.91V221.72H125.48V233.91ZM125.48,227.81H125.48M125.48,227.81H125.48M125.48,229.03V226.59M125.48,229.03V226.59" style="vector-effect: non-scaling-stroke; stroke-width: 1px; stroke: rgb(89, 52, 14); stroke-opacity: 1; fill: rgb(166, 97, 26); fill-opacity: 1;"/></g><g class="trace boxes" style="opacity: 1;"><path class="box" d="M141.5,217.03V204.84M141.5,217.03V204.84H141.5V217.03ZM141.5,210.94H141.5M141.5,210.94H141.5M141.5,212.16V209.72M141.5,212.16V209.72" style="vector-effect: non-scaling-stroke; stroke-width: 1px; stroke: rgb(89, 52, 14); stroke-opacity: 1; fill: rgb(166, 97, 26); fill-opacity: 1;"/></g><g class="trace boxes" style="opacity: 1;"><path class="box" d="M105.18,200.16V187.97M105.18,200.16V187.97H105.18V200.16ZM105.18,194.06H105.18M105.18,194.06H105.18M105.18,195.28V192.84M105.18,195.28V192.84" style="vector-effect: non-scaling-stroke; stroke-width: 1px; stroke: rgb(89, 52, 14); stroke-opacity: 1; fill: rgb(166, 97, 26); fill-opacity: 1;"/></g><g class="trace boxes" style="opacity: 1;"><path class="box" d="M108.47,183.28V171.09M112.19,183.28V171.09H95.6V183.28ZM112.19,177.19H119.25M95.6,177.19H85.55M119.25,178.41V175.97M85.55,178.41V175.97" style="vector-effect: non-scaling-stroke; stroke-width: 1px; stroke: rgb(117, 100, 56); stroke-opacity: 1; fill: rgb(223, 194, 125); fill-opacity: 1;"/></g><g class="trace boxes" style="opacity: 1;"><path class="box" d="M69.61,166.41V154.22M84.47,166.41V154.22H64.32V166.41ZM84.47,160.31H89.43M64.32,160.31H62.56M89.43,161.53V159.09M62.56,161.53V159.09" style="vector-effect: non-scaling-stroke; stroke-width: 1px; stroke: rgb(117, 100, 56); stroke-opacity: 1; fill: rgb(223, 194, 125); fill-opacity: 1;"/></g><g class="trace boxes" style="opacity: 1;"><path class="box" d="M72.35,149.53V137.34M97.32,149.53V137.34H55.68V149.53ZM97.32,143.44H143.48M55.68,143.44H48.22M143.48,144.66V142.22M48.22,144.66V142.22" style="vector-effect: non-scaling-stroke; stroke-width: 1px; stroke: rgb(117, 100, 56); stroke-opacity: 1; fill: rgb(223, 194, 125); fill-opacity: 1;"/></g><g class="trace boxes" style="opacity: 1;"><path class="box" d="M104.54,132.66V120.47M104.54,132.66V120.47H104.54V132.66ZM104.54,126.56H104.54M104.54,126.56H104.54M104.54,127.78V125.34M104.54,127.78V125.34" style="vector-effect: non-scaling-stroke; stroke-width: 1px; stroke: rgb(117, 100, 56); stroke-opacity: 1; fill: rgb(223, 194, 125); fill-opacity: 1;"/></g><g class="trace boxes" style="opacity: 1;"><path class="box" d="M86.61,115.78V103.59M97.74,115.78V103.59H80.69V115.78ZM97.74,109.69H101.8M80.69,109.69H74.07M101.8,110.91V108.47M74.07,110.91V108.47" style="vector-effect: non-scaling-stroke; stroke-width: 1px; stroke: rgb(54, 91, 85); stroke-opacity: 1; fill: rgb(128, 205, 193); fill-opacity: 1;"/></g><g class="trace boxes" style="opacity: 1;"><path class="box" d="M94.65,98.91V86.72M94.65,98.91V86.72H94.65V98.91ZM94.65,92.81H94.65M94.65,92.81H94.65M94.65,94.03V91.59M94.65,94.03V91.59" style="vector-effect: non-scaling-stroke; stroke-width: 1px; stroke: rgb(54, 91, 85); stroke-opacity: 1; fill: rgb(128, 205, 193); fill-opacity: 1;"/></g><g class="trace boxes" style="opacity: 1;"><path class="box" d="M69.94,82.03V69.84M85.51,82.03V69.84H66.24V82.03ZM85.51,75.94H118.16M66.24,75.94H63.89M118.16,77.16V74.72M63.89,77.16V74.72" style="vector-effect: non-scaling-stroke; stroke-width: 1px; stroke: rgb(54, 91, 85); stroke-opacity: 1; fill: rgb(128, 205, 193); fill-opacity: 1;"/></g><g class="trace boxes" style="opacity: 1;"><path class="box" d="M47.95,65.16V52.97M57.66,65.16V52.97H38.24V65.16ZM57.66,59.06H57.66M38.24,59.06H38.24M57.66,60.28V57.84M38.24,60.28V57.84" style="vector-effect: non-scaling-stroke; stroke-width: 1px; stroke: rgb(54, 91, 85); stroke-opacity: 1; fill: rgb(128, 205, 193); fill-opacity: 1;"/></g><g class="trace boxes" style="opacity: 1;"><path class="box" d="M43.86,48.28V36.09M88.79,48.28V36.09H31.75V48.28ZM88.79,42.19H156.75M31.75,42.19H8.25M156.75,43.41V40.97M8.25,43.41V40.97" style="vector-effect: non-scaling-stroke; stroke-width: 1px; stroke: rgb(5, 47, 41); stroke-opacity: 1; fill: rgb(1, 133, 113); fill-opacity: 1;"/></g><g class="trace boxes" style="opacity: 1;"><path class="box" d="M22.96,31.41V19.22M30.64,31.41V19.22H15.51V31.41ZM30.64,25.31H32.86M15.51,25.31H14.11M32.86,26.53V24.09M14.11,26.53V24.09" style="vector-effect: non-scaling-stroke; stroke-width: 1px; stroke: rgb(5, 47, 41); stroke-opacity: 1; fill: rgb(1, 133, 113); fill-opacity: 1;"/></g><g class="trace boxes" style="opacity: 1;"><path class="box" d="M27.53,14.53V2.34M37.78,14.53V2.34H21.91V14.53ZM37.78,8.44H40.12M21.91,8.44H17.85M40.12,9.66V7.22M17.85,9.66V7.22" style="vector-effect: non-scaling-stroke; stroke-width: 1px; stroke: rgb(5, 47, 41); stroke-opacity: 1; fill: rgb(1, 133, 113); fill-opacity: 1;"/></g></g></g><g class="overplot"/><path class="xlines-above crisp" d="M104,370.5H270" style="fill: none; stroke-width: 1px; stroke: rgb(0, 0, 0); stroke-opacity: 1;"/><path class="ylines-above crisp" d="M104.5,100V370" style="fill: none; stroke-width: 1px; stroke: rgb(0, 0, 0); stroke-opacity: 1;"/><g class="overlines-above"/><g class="xaxislayer-above"><g class="xtick"><text text-anchor="middle" x="0" y="385.4" transform="translate(113.25,0)" style="font-family: 'Times New Roman'; font-size: 12px; fill: rgb(42, 63, 95); fill-opacity: 1; white-space: pre; opacity: 1;">1</text></g><g class="xtick"><text text-anchor="middle" x="0" y="385.4" style="font-family: 'Times New Roman'; font-size: 12px; fill: rgb(42, 63, 95); fill-opacity: 1; white-space: pre; opacity: 1;" transform="translate(187.5,0)">0.5</text></g><g class="xtick"><text text-anchor="middle" x="0" y="385.4" style="font-family: 'Times New Roman'; font-size: 12px; fill: rgb(42, 63, 95); fill-opacity: 1; white-space: pre; opacity: 1;" transform="translate(261.75,0)">0</text></g></g><g class="yaxislayer-above"><g class="ytick"><text text-anchor="end" x="102" y="3.5" transform="translate(0,361.56)" style="font-family: 'Times New Roman'; font-size: 10px; fill: rgb(42, 63, 95); fill-opacity: 1; white-space: pre; opacity: 1;">DAKRNSKSL</text></g><g class="ytick"><text text-anchor="end" x="102" y="3.5" transform="translate(0,344.69)" style="font-family: 'Times New Roman'; font-size: 10px; fill: rgb(42, 63, 95); fill-opacity: 1; white-space: pre; opacity: 1;">EIDVSEVKT</text></g><g class="ytick"><text text-anchor="end" x="102" y="3.5" transform="translate(0,327.81)" style="font-family: 'Times New Roman'; font-size: 10px; fill: rgb(42, 63, 95); fill-opacity: 1; white-space: pre; opacity: 1;">ATKRYPGVM</text></g><g class="ytick"><text text-anchor="end" x="102" y="3.5" transform="translate(0,310.94)" style="font-family: 'Times New Roman'; font-size: 10px; fill: rgb(42, 63, 95); fill-opacity: 1; white-space: pre; opacity: 1;">AAEQRRSTI</text></g><g class="ytick"><text text-anchor="end" x="102" y="3.5" transform="translate(0,294.06)" style="font-family: 'Times New Roman'; font-size: 10px; fill: rgb(42, 63, 95); fill-opacity: 1; white-space: pre; opacity: 1;">ETLNEYKQL</text></g><g class="ytick"><text text-anchor="end" x="102" y="3.5" transform="translate(0,277.19)" style="font-family: 'Times New Roman'; font-size: 10px; fill: rgb(42, 63, 95); fill-opacity: 1; white-space: pre; opacity: 1;">SLLMWITQC</text></g><g class="ytick"><text text-anchor="end" x="102" y="3.5" transform="translate(0,260.31)" style="font-family: 'Times New Roman'; font-size: 10px; fill: rgb(42, 63, 95); fill-opacity: 1; white-space: pre; opacity: 1;">EAAGIGILTV</text></g><g class="ytick"><text text-anchor="end" x="102" y="3.5" transform="translate(0,243.44)" style="font-family: 'Times New Roman'; font-size: 10px; fill: rgb(42, 63, 95); fill-opacity: 1; white-space: pre; opacity: 1;">RGPGRAFVTI</text></g><g class="ytick"><text text-anchor="end" x="102" y="3.5" transform="translate(0,226.56)" style="font-family: 'Times New Roman'; font-size: 10px; fill: rgb(42, 63, 95); fill-opacity: 1; white-space: pre; opacity: 1;">RQISQDVKL</text></g><g class="ytick"><text text-anchor="end" x="102" y="3.5" transform="translate(0,209.69)" style="font-family: 'Times New Roman'; font-size: 10px; fill: rgb(42, 63, 95); fill-opacity: 1; white-space: pre; opacity: 1;">AAGIGILTV</text></g><g class="ytick"><text text-anchor="end" x="102" y="3.5" transform="translate(0,192.81)" style="font-family: 'Times New Roman'; font-size: 10px; fill: rgb(42, 63, 95); fill-opacity: 1; white-space: pre; opacity: 1;">VLRDDLLEA</text></g><g class="ytick"><text text-anchor="end" x="102" y="3.5" transform="translate(0,175.94)" style="font-family: 'Times New Roman'; font-size: 10px; fill: rgb(42, 63, 95); fill-opacity: 1; white-space: pre; opacity: 1;">ILKEPVHGV</text></g><g class="ytick"><text text-anchor="end" x="102" y="3.5" transform="translate(0,159.06)" style="font-family: 'Times New Roman'; font-size: 10px; fill: rgb(42, 63, 95); fill-opacity: 1; white-space: pre; opacity: 1;">CINGVCWTV</text></g><g class="ytick"><text text-anchor="end" x="102" y="3.5" transform="translate(0,142.19)" style="font-family: 'Times New Roman'; font-size: 10px; fill: rgb(42, 63, 95); fill-opacity: 1; white-space: pre; opacity: 1;">LLFGYPVYV</text></g><g class="ytick"><text text-anchor="end" x="102" y="3.5" transform="translate(0,125.31)" style="font-family: 'Times New Roman'; font-size: 10px; fill: rgb(42, 63, 95); fill-opacity: 1; white-space: pre; opacity: 1;">ALWGFFPVL</text></g><g class="ytick"><text text-anchor="end" x="102" y="3.5" transform="translate(0,108.44)" style="font-family: 'Times New Roman'; font-size: 10px; fill: rgb(42, 63, 95); fill-opacity: 1; white-space: pre; opacity: 1;">FLPSDFFPSV</text></g></g><g class="overaxes-above"/></g></g><g class="polarlayer"/><g class="ternarylayer"/><g class="geolayer"/><g class="funnelarealayer"/><g class="pielayer"/><g class="iciclelayer"/><g class="treemaplayer"/><g class="sunburstlayer"/><g class="glimages"/><defs id="topdefs-30732d"><g class="clips"/></defs><g class="layer-above"><g class="imagelayer"/><g class="shapelayer"/></g><g class="infolayer"><g class="g-gtitle"/><g class="g-xtitle"><text class="xtitle" x="187.5" y="413.20625" text-anchor="middle" style="font-family: 'Times New Roman'; font-size: 14px; fill: rgb(42, 63, 95); opacity: 1; font-weight: normal; white-space: pre;">Vina</text></g><g class="g-ytitle" transform="translate(0.7998046875,0)"><text class="ytitle" transform="rotate(-90,12.200000000000003,235)" x="12.200000000000003" y="235" text-anchor="middle" style="font-family: 'Times New Roman'; font-size: 14px; fill: rgb(42, 63, 95); opacity: 1; font-weight: normal; white-space: pre;">Peptide</text></g></g></svg>