<svg class="main-svg" xmlns="http://www.w3.org/2000/svg" xmlns:xlink="http://www.w3.org/1999/xlink" width="350" height="450" style="" viewBox="0 0 350 450"><rect x="0" y="0" width="350" height="450" style="fill: rgb(0, 0, 0); fill-opacity: 0;"/><defs id="defs-244d83"><g class="clips"><clipPath id="clip244d83xyplot" class="plotclip"><rect width="165" height="270"/></clipPath><clipPath class="axesclip" id="clip244d83x"><rect x="105" y="0" width="165" height="450"/></clipPath><clipPath class="axesclip" id="clip244d83y"><rect x="0" y="100" width="350" height="270"/></clipPath><clipPath class="axesclip" id="clip244d83xy"><rect x="105" y="100" width="165" height="270"/></clipPath></g><g class="gradients"/><g class="patterns"/></defs><g class="bglayer"><rect class="bg" x="105" y="100" width="165" height="270" style="fill: rgb(0, 0, 0); fill-opacity: 0; stroke-width: 0;"/></g><g class="layer-below"><g class="imagelayer"/><g class="shapelayer"/></g><g class="cartesianlayer"><g class="subplot xy"><g class="layer-subplot"><g class="shapelayer"/><g class="imagelayer"/></g><g class="gridlayer"><g class="x"><path class="xgrid crisp" transform="translate(113.25,0)" d="M0,100v270" style="stroke: rgb(255, 255, 255); stroke-opacity: 1; stroke-width: 1px;"/><path class="xgrid crisp" transform="translate(187.5,0)" d="M0,100v270" style="stroke: rgb(255, 255, 255); stroke-opacity: 1; stroke-width: 1px;"/></g><g class="y"/></g><g class="zerolinelayer"><path class="xzl zl crisp" transform="translate(261.75,0)" d="M0,100v270" style="stroke: rgb(255, 255, 255); stroke-opacity: 1; stroke-width: 2px;"/></g><path class="xlines-below"/><path class="ylines-below"/><g class="overlines-below"/><g class="xaxislayer-below"/><g class="yaxislayer-below"/><g class="overaxes-below"/><g class="plot" transform="translate(105,100)" clip-path="url(#clip244d83xyplot)"><g class="boxlayer mlayer"><g class="trace boxes" style="opacity: 1;"><path class="box" d="M19.58,267.66V255.47M19.58,267.66V255.47H19.58V267.66ZM19.58,261.56H19.58M19.58,261.56H19.58M19.58,262.78V260.34M19.58,262.78V260.34" style="vector-effect: non-scaling-stroke; stroke-width: 1px; stroke: rgb(89, 52, 14); stroke-opacity: 1; fill: rgb(166, 97, 26); fill-opacity: 1;"/></g><g class="trace boxes" style="opacity: 1;"><path class="box" d="M16.77,250.78V238.59M16.77,250.78V238.59H16.77V250.78ZM16.77,244.69H16.77M16.77,244.69H16.77M16.77,245.91V243.47M16.77,245.91V243.47" style="vector-effect: non-scaling-stroke; stroke-width: 1px; stroke: rgb(89, 52, 14); stroke-opacity: 1; fill: rgb(166, 97, 26); fill-opacity: 1;"/></g><g class="trace boxes" style="opacity: 1;"><path class="box" d="M21.69,233.91V221.72M21.69,233.91V221.72H21.69V233.91ZM21.69,227.81H21.69M21.69,227.81H21.69M21.69,229.03V226.59M21.69,229.03V226.59" style="vector-effect: non-scaling-stroke; stroke-width: 1px; stroke: rgb(89, 52, 14); stroke-opacity: 1; fill: rgb(166, 97, 26); fill-opacity: 1;"/></g><g class="trace boxes" style="opacity: 1;"><path class="box" d="M19.49,217.03V204.84M19.49,217.03V204.84H19.49V217.03ZM19.49,210.94H19.49M19.49,210.94H19.49M19.49,212.16V209.72M19.49,212.16V209.72" style="vector-effect: non-scaling-stroke; stroke-width: 1px; stroke: rgb(89, 52, 14); stroke-opacity: 1; fill: rgb(166, 97, 26); fill-opacity: 1;"/></g><g class="trace boxes" style="opacity: 1;"><path class="box" d="M14.72,200.16V187.97M14.72,200.16V187.97H14.72V200.16ZM14.72,194.06H14.72M14.72,194.06H14.72M14.72,195.28V192.84M14.72,195.28V192.84" style="vector-effect: non-scaling-stroke; stroke-width: 1px; stroke: rgb(89, 52, 14); stroke-opacity: 1; fill: rgb(166, 97, 26); fill-opacity: 1;"/></g><g class="trace boxes" style="opacity: 1;"><path class="box" d="M74.64,183.28V171.09M108.56,183.28V171.09H46.45V183.28ZM108.56,177.19H124.22M46.45,177.19H43.47M124.22,178.41V175.97M43.47,178.41V175.97" style="vector-effect: non-scaling-stroke; stroke-width: 1px; stroke: rgb(117, 100, 56); stroke-opacity: 1; fill: rgb(223, 194, 125); fill-opacity: 1;"/></g><g class="trace boxes" style="opacity: 1;"><path class="box" d="M18.95,166.41V154.22M24.71,166.41V154.22H17.81V166.41ZM24.71,160.31H26.63M17.81,160.31H17.43M26.63,161.53V159.09M17.43,161.53V159.09" style="vector-effect: non-scaling-stroke; stroke-width: 1px; stroke: rgb(117, 100, 56); stroke-opacity: 1; fill: rgb(223, 194, 125); fill-opacity: 1;"/></g><g class="trace boxes" style="opacity: 1;"><path class="box" d="M47.23,149.53V137.34M78.75,149.53V137.34H27.57V149.53ZM78.75,143.44H156.75M27.57,143.44H15.64M156.75,144.66V142.22M15.64,144.66V142.22" style="vector-effect: non-scaling-stroke; stroke-width: 1px; stroke: rgb(117, 100, 56); stroke-opacity: 1; fill: rgb(223, 194, 125); fill-opacity: 1;"/></g><g class="trace boxes" style="opacity: 1;"><path class="box" d="M26.62,132.66V120.47M26.62,132.66V120.47H26.62V132.66ZM26.62,126.56H26.62M26.62,126.56H26.62M26.62,127.78V125.34M26.62,127.78V125.34" style="vector-effect: non-scaling-stroke; stroke-width: 1px; stroke: rgb(117, 100, 56); stroke-opacity: 1; fill: rgb(223, 194, 125); fill-opacity: 1;"/></g><g class="trace boxes" style="opacity: 1;"><path class="box" d="M20.2,115.78V103.59M20.86,115.78V103.59H19.41V115.78ZM20.86,109.69H54.28M19.41,109.69H19.28M54.28,110.91V108.47M19.28,110.91V108.47" style="vector-effect: non-scaling-stroke; stroke-width: 1px; stroke: rgb(54, 91, 85); stroke-opacity: 1; fill: rgb(128, 205, 193); fill-opacity: 1;"/></g><g class="trace boxes" style="opacity: 1;"><path class="box" d="M8.25,98.91V86.72M8.25,98.91V86.72H8.25V98.91ZM8.25,92.81H8.25M8.25,92.81H8.25M8.25,94.03V91.59M8.25,94.03V91.59" style="vector-effect: non-scaling-stroke; stroke-width: 1px; stroke: rgb(54, 91, 85); stroke-opacity: 1; fill: rgb(128, 205, 193); fill-opacity: 1;"/></g><g class="trace boxes" style="opacity: 1;"><path class="box" d="M91.26,82.03V69.84M96.14,82.03V69.84H45.83V82.03ZM96.14,75.94H104.22M45.83,75.94H30.12M104.22,77.16V74.72M30.12,77.16V74.72" style="vector-effect: non-scaling-stroke; stroke-width: 1px; stroke: rgb(54, 91, 85); stroke-opacity: 1; fill: rgb(128, 205, 193); fill-opacity: 1;"/></g><g class="trace boxes" style="opacity: 1;"><path class="box" d="M30.7,65.16V52.97M31.23,65.16V52.97H30.16V65.16ZM31.23,59.06H31.23M30.16,59.06H30.16M31.23,60.28V57.84M30.16,60.28V57.84" style="vector-effect: non-scaling-stroke; stroke-width: 1px; stroke: rgb(54, 91, 85); stroke-opacity: 1; fill: rgb(128, 205, 193); fill-opacity: 1;"/></g><g class="trace boxes" style="opacity: 1;"><path class="box" d="M44.64,48.28V36.09M95.81,48.28V36.09H19.32V48.28ZM95.81,42.19H143.99M19.32,42.19H11.59M143.99,43.41V40.97M11.59,43.41V40.97" style="vector-effect: non-scaling-stroke; stroke-width: 1px; stroke: rgb(5, 47, 41); stroke-opacity: 1; fill: rgb(1, 133, 113); fill-opacity: 1;"/></g><g class="trace boxes" style="opacity: 1;"><path class="box" d="M63.73,31.41V19.22M74.32,31.41V19.22H42.44V31.41ZM74.32,25.31H103.77M42.44,25.31H20.64M103.77,26.53V24.09M20.64,26.53V24.09" style="vector-effect: non-scaling-stroke; stroke-width: 1px; stroke: rgb(5, 47, 41); stroke-opacity: 1; fill: rgb(1, 133, 113); fill-opacity: 1;"/></g><g class="trace boxes" style="opacity: 1;"><path class="box" d="M34.49,14.53V2.34M77.5,14.53V2.34H21.3V14.53ZM77.5,8.44H105.77M21.3,8.44H15.93M105.77,9.66V7.22M15.93,9.66V7.22" style="vector-effect: non-scaling-stroke; stroke-width: 1px; stroke: rgb(5, 47, 41); stroke-opacity: 1; fill: rgb(1, 133, 113); fill-opacity: 1;"/></g></g></g><g class="overplot"/><path class="xlines-above crisp" d="M104,370.5H270" style="fill: none; stroke-width: 1px; stroke: rgb(0, 0, 0); stroke-opacity: 1;"/><path class="ylines-above crisp" d="M104.5,100V370" style="fill: none; stroke-width: 1px; stroke: rgb(0, 0, 0); stroke-opacity: 1;"/><g class="overlines-above"/><g class="xaxislayer-above"><g class="xtick"><text text-anchor="middle" x="0" y="385.4" transform="translate(113.25,0)" style="font-family: 'Times New Roman'; font-size: 12px; fill: rgb(42, 63, 95); fill-opacity: 1; white-space: pre; opacity: 1;">1</text></g><g class="xtick"><text text-anchor="middle" x="0" y="385.4" style="font-family: 'Times New Roman'; font-size: 12px; fill: rgb(42, 63, 95); fill-opacity: 1; white-space: pre; opacity: 1;" transform="translate(187.5,0)">0.5</text></g><g class="xtick"><text text-anchor="middle" x="0" y="385.4" style="font-family: 'Times New Roman'; font-size: 12px; fill: rgb(42, 63, 95); fill-opacity: 1; white-space: pre; opacity: 1;" transform="translate(261.75,0)">0</text></g></g><g class="yaxislayer-above"><g class="ytick"><text text-anchor="end" x="102" y="3.5" transform="translate(0,361.56)" style="font-family: 'Times New Roman'; font-size: 10px; fill: rgb(42, 63, 95); fill-opacity: 1; white-space: pre; opacity: 1;">DAKRNSKSL</text></g><g class="ytick"><text text-anchor="end" x="102" y="3.5" transform="translate(0,344.69)" style="font-family: 'Times New Roman'; font-size: 10px; fill: rgb(42, 63, 95); fill-opacity: 1; white-space: pre; opacity: 1;">EIDVSEVKT</text></g><g class="ytick"><text text-anchor="end" x="102" y="3.5" transform="translate(0,327.81)" style="font-family: 'Times New Roman'; font-size: 10px; fill: rgb(42, 63, 95); fill-opacity: 1; white-space: pre; opacity: 1;">ATKRYPGVM</text></g><g class="ytick"><text text-anchor="end" x="102" y="3.5" transform="translate(0,310.94)" style="font-family: 'Times New Roman'; font-size: 10px; fill: rgb(42, 63, 95); fill-opacity: 1; white-space: pre; opacity: 1;">AAEQRRSTI</text></g><g class="ytick"><text text-anchor="end" x="102" y="3.5" transform="translate(0,294.06)" style="font-family: 'Times New Roman'; font-size: 10px; fill: rgb(42, 63, 95); fill-opacity: 1; white-space: pre; opacity: 1;">ETLNEYKQL</text></g><g class="ytick"><text text-anchor="end" x="102" y="3.5" transform="translate(0,277.19)" style="font-family: 'Times New Roman'; font-size: 10px; fill: rgb(42, 63, 95); fill-opacity: 1; white-space: pre; opacity: 1;">SLLMWITQC</text></g><g class="ytick"><text text-anchor="end" x="102" y="3.5" transform="translate(0,260.31)" style="font-family: 'Times New Roman'; font-size: 10px; fill: rgb(42, 63, 95); fill-opacity: 1; white-space: pre; opacity: 1;">EAAGIGILTV</text></g><g class="ytick"><text text-anchor="end" x="102" y="3.5" transform="translate(0,243.44)" style="font-family: 'Times New Roman'; font-size: 10px; fill: rgb(42, 63, 95); fill-opacity: 1; white-space: pre; opacity: 1;">RGPGRAFVTI</text></g><g class="ytick"><text text-anchor="end" x="102" y="3.5" transform="translate(0,226.56)" style="font-family: 'Times New Roman'; font-size: 10px; fill: rgb(42, 63, 95); fill-opacity: 1; white-space: pre; opacity: 1;">RQISQDVKL</text></g><g class="ytick"><text text-anchor="end" x="102" y="3.5" transform="translate(0,209.69)" style="font-family: 'Times New Roman'; font-size: 10px; fill: rgb(42, 63, 95); fill-opacity: 1; white-space: pre; opacity: 1;">AAGIGILTV</text></g><g class="ytick"><text text-anchor="end" x="102" y="3.5" transform="translate(0,192.81)" style="font-family: 'Times New Roman'; font-size: 10px; fill: rgb(42, 63, 95); fill-opacity: 1; white-space: pre; opacity: 1;">VLRDDLLEA</text></g><g class="ytick"><text text-anchor="end" x="102" y="3.5" transform="translate(0,175.94)" style="font-family: 'Times New Roman'; font-size: 10px; fill: rgb(42, 63, 95); fill-opacity: 1; white-space: pre; opacity: 1;">ILKEPVHGV</text></g><g class="ytick"><text text-anchor="end" x="102" y="3.5" transform="translate(0,159.06)" style="font-family: 'Times New Roman'; font-size: 10px; fill: rgb(42, 63, 95); fill-opacity: 1; white-space: pre; opacity: 1;">CINGVCWTV</text></g><g class="ytick"><text text-anchor="end" x="102" y="3.5" transform="translate(0,142.19)" style="font-family: 'Times New Roman'; font-size: 10px; fill: rgb(42, 63, 95); fill-opacity: 1; white-space: pre; opacity: 1;">LLFGYPVYV</text></g><g class="ytick"><text text-anchor="end" x="102" y="3.5" transform="translate(0,125.31)" style="font-family: 'Times New Roman'; font-size: 10px; fill: rgb(42, 63, 95); fill-opacity: 1; white-space: pre; opacity: 1;">ALWGFFPVL</text></g><g class="ytick"><text text-anchor="end" x="102" y="3.5" transform="translate(0,108.44)" style="font-family: 'Times New Roman'; font-size: 10px; fill: rgb(42, 63, 95); fill-opacity: 1; white-space: pre; opacity: 1;">FLPSDFFPSV</text></g></g><g class="overaxes-above"/></g></g><g class="polarlayer"/><g class="ternarylayer"/><g class="geolayer"/><g class="funnelarealayer"/><g class="pielayer"/><g class="iciclelayer"/><g class="treemaplayer"/><g class="sunburstlayer"/><g class="glimages"/><defs id="topdefs-244d83"><g class="clips"/></defs><g class="layer-above"><g class="imagelayer"/><g class="shapelayer"/></g><g class="infolayer"><g class="g-gtitle"/><g class="g-xtitle"><text class="xtitle" x="187.5" y="413.20625" text-anchor="middle" style="font-family: 'Times New Roman'; font-size: 14px; fill: rgb(42, 63, 95); opacity: 1; font-weight: normal; white-space: pre;">GradDock</text></g><g class="g-ytitle" transform="translate(0.7998046875,0)"><text class="ytitle" transform="rotate(-90,12.200000000000003,235)" x="12.200000000000003" y="235" text-anchor="middle" style="font-family: 'Times New Roman'; font-size: 14px; fill: rgb(42, 63, 95); opacity: 1; font-weight: normal; white-space: pre;">Peptide</text></g></g></svg>