<svg class="main-svg" xmlns="http://www.w3.org/2000/svg" xmlns:xlink="http://www.w3.org/1999/xlink" width="350" height="450" style="" viewBox="0 0 350 450"><rect x="0" y="0" width="350" height="450" style="fill: rgb(0, 0, 0); fill-opacity: 0;"/><defs id="defs-8ffcdf"><g class="clips"><clipPath id="clip8ffcdfxyplot" class="plotclip"><rect width="165" height="270"/></clipPath><clipPath class="axesclip" id="clip8ffcdfx"><rect x="105" y="0" width="165" height="450"/></clipPath><clipPath class="axesclip" id="clip8ffcdfy"><rect x="0" y="100" width="350" height="270"/></clipPath><clipPath class="axesclip" id="clip8ffcdfxy"><rect x="105" y="100" width="165" height="270"/></clipPath></g><g class="gradients"/><g class="patterns"/></defs><g class="bglayer"><rect class="bg" x="105" y="100" width="165" height="270" style="fill: rgb(0, 0, 0); fill-opacity: 0; stroke-width: 0;"/></g><g class="layer-below"><g class="imagelayer"/><g class="shapelayer"/></g><g class="cartesianlayer"><g class="subplot xy"><g class="layer-subplot"><g class="shapelayer"/><g class="imagelayer"/></g><g class="gridlayer"><g class="x"><path class="xgrid crisp" transform="translate(113.25,0)" d="M0,100v270" style="stroke: rgb(255, 255, 255); stroke-opacity: 1; stroke-width: 1px;"/><path class="xgrid crisp" transform="translate(187.5,0)" d="M0,100v270" style="stroke: rgb(255, 255, 255); stroke-opacity: 1; stroke-width: 1px;"/></g><g class="y"/></g><g class="zerolinelayer"><path class="xzl zl crisp" transform="translate(261.75,0)" d="M0,100v270" style="stroke: rgb(255, 255, 255); stroke-opacity: 1; stroke-width: 2px;"/></g><path class="xlines-below"/><path class="ylines-below"/><g class="overlines-below"/><g class="xaxislayer-below"/><g class="yaxislayer-below"/><g class="overaxes-below"/><g class="plot" transform="translate(105,100)" clip-path="url(#clip8ffcdfxyplot)"><g class="boxlayer mlayer"><g class="trace boxes" style="opacity: 1;"><path class="box" d="M128.92,267.66V255.47M128.92,267.66V255.47H128.92V267.66ZM128.92,261.56H128.92M128.92,261.56H128.92M128.92,262.78V260.34M128.92,262.78V260.34" style="vector-effect: non-scaling-stroke; stroke-width: 1px; stroke: rgb(89, 52, 14); stroke-opacity: 1; fill: rgb(166, 97, 26); fill-opacity: 1;"/></g><g class="trace boxes" style="opacity: 1;"><path class="box" d="M116.24,250.78V238.59M116.24,250.78V238.59H116.24V250.78ZM116.24,244.69H116.24M116.24,244.69H116.24M116.24,245.91V243.47M116.24,245.91V243.47" style="vector-effect: non-scaling-stroke; stroke-width: 1px; stroke: rgb(89, 52, 14); stroke-opacity: 1; fill: rgb(166, 97, 26); fill-opacity: 1;"/></g><g class="trace boxes" style="opacity: 1;"><path class="box" d="M145.01,233.91V221.72M145.01,233.91V221.72H145.01V233.91ZM145.01,227.81H145.01M145.01,227.81H145.01M145.01,229.03V226.59M145.01,229.03V226.59" style="vector-effect: non-scaling-stroke; stroke-width: 1px; stroke: rgb(89, 52, 14); stroke-opacity: 1; fill: rgb(166, 97, 26); fill-opacity: 1;"/></g><g class="trace boxes" style="opacity: 1;"><path class="box" d="M137.76,217.03V204.84M137.76,217.03V204.84H137.76V217.03ZM137.76,210.94H137.76M137.76,210.94H137.76M137.76,212.16V209.72M137.76,212.16V209.72" style="vector-effect: non-scaling-stroke; stroke-width: 1px; stroke: rgb(89, 52, 14); stroke-opacity: 1; fill: rgb(166, 97, 26); fill-opacity: 1;"/></g><g class="trace boxes" style="opacity: 1;"><path class="box" d="M96.7,200.16V187.97M96.7,200.16V187.97H96.7V200.16ZM96.7,194.06H96.7M96.7,194.06H96.7M96.7,195.28V192.84M96.7,195.28V192.84" style="vector-effect: non-scaling-stroke; stroke-width: 1px; stroke: rgb(89, 52, 14); stroke-opacity: 1; fill: rgb(166, 97, 26); fill-opacity: 1;"/></g><g class="trace boxes" style="opacity: 1;"><path class="box" d="M111.89,183.28V171.09M117.45,183.28V171.09H95.56V183.28ZM117.45,177.19H122.23M95.56,177.19H91.6M122.23,178.41V175.97M91.6,178.41V175.97" style="vector-effect: non-scaling-stroke; stroke-width: 1px; stroke: rgb(117, 100, 56); stroke-opacity: 1; fill: rgb(223, 194, 125); fill-opacity: 1;"/></g><g class="trace boxes" style="opacity: 1;"><path class="box" d="M75.77,166.41V154.22M91.52,166.41V154.22H66.29V166.41ZM91.52,160.31H96.77M66.29,160.31H63.13M96.77,161.53V159.09M63.13,161.53V159.09" style="vector-effect: non-scaling-stroke; stroke-width: 1px; stroke: rgb(117, 100, 56); stroke-opacity: 1; fill: rgb(223, 194, 125); fill-opacity: 1;"/></g><g class="trace boxes" style="opacity: 1;"><path class="box" d="M76.49,149.53V137.34M109.18,149.53V137.34H59.92V149.53ZM109.18,143.44H155.39M59.92,143.44H43.09M155.39,144.66V142.22M43.09,144.66V142.22" style="vector-effect: non-scaling-stroke; stroke-width: 1px; stroke: rgb(117, 100, 56); stroke-opacity: 1; fill: rgb(223, 194, 125); fill-opacity: 1;"/></g><g class="trace boxes" style="opacity: 1;"><path class="box" d="M83.39,132.66V120.47M83.39,132.66V120.47H83.39V132.66ZM83.39,126.56H83.39M83.39,126.56H83.39M83.39,127.78V125.34M83.39,127.78V125.34" style="vector-effect: non-scaling-stroke; stroke-width: 1px; stroke: rgb(117, 100, 56); stroke-opacity: 1; fill: rgb(223, 194, 125); fill-opacity: 1;"/></g><g class="trace boxes" style="opacity: 1;"><path class="box" d="M101.37,115.78V103.59M103.25,115.78V103.59H98.26V115.78ZM103.25,109.69H104.3M98.26,109.69H74.49M104.3,110.91V108.47M74.49,110.91V108.47" style="vector-effect: non-scaling-stroke; stroke-width: 1px; stroke: rgb(54, 91, 85); stroke-opacity: 1; fill: rgb(128, 205, 193); fill-opacity: 1;"/></g><g class="trace boxes" style="opacity: 1;"><path class="box" d="M92.29,98.91V86.72M92.29,98.91V86.72H92.29V98.91ZM92.29,92.81H92.29M92.29,92.81H92.29M92.29,94.03V91.59M92.29,94.03V91.59" style="vector-effect: non-scaling-stroke; stroke-width: 1px; stroke: rgb(54, 91, 85); stroke-opacity: 1; fill: rgb(128, 205, 193); fill-opacity: 1;"/></g><g class="trace boxes" style="opacity: 1;"><path class="box" d="M70.35,82.03V69.84M96.9,82.03V69.84H65.27V82.03ZM96.9,75.94H153.78M65.27,75.94H58.64M153.78,77.16V74.72M58.64,77.16V74.72" style="vector-effect: non-scaling-stroke; stroke-width: 1px; stroke: rgb(54, 91, 85); stroke-opacity: 1; fill: rgb(128, 205, 193); fill-opacity: 1;"/></g><g class="trace boxes" style="opacity: 1;"><path class="box" d="M72.32,65.16V52.97M81.6,65.16V52.97H63.04V65.16ZM81.6,59.06H81.6M63.04,59.06H63.04M81.6,60.28V57.84M63.04,60.28V57.84" style="vector-effect: non-scaling-stroke; stroke-width: 1px; stroke: rgb(54, 91, 85); stroke-opacity: 1; fill: rgb(128, 205, 193); fill-opacity: 1;"/></g><g class="trace boxes" style="opacity: 1;"><path class="box" d="M43.74,48.28V36.09M78.73,48.28V36.09H33.02V48.28ZM78.73,42.19H156.75M33.02,42.19H8.25M156.75,43.41V40.97M8.25,43.41V40.97" style="vector-effect: non-scaling-stroke; stroke-width: 1px; stroke: rgb(5, 47, 41); stroke-opacity: 1; fill: rgb(1, 133, 113); fill-opacity: 1;"/></g><g class="trace boxes" style="opacity: 1;"><path class="box" d="M39.89,31.41V19.22M48.88,31.41V19.22H31.87V31.41ZM48.88,25.31H50.33M31.87,25.31H27.2M50.33,26.53V24.09M27.2,26.53V24.09" style="vector-effect: non-scaling-stroke; stroke-width: 1px; stroke: rgb(5, 47, 41); stroke-opacity: 1; fill: rgb(1, 133, 113); fill-opacity: 1;"/></g><g class="trace boxes" style="opacity: 1;"><path class="box" d="M39.19,14.53V2.34M46.81,14.53V2.34H28.94V14.53ZM46.81,8.44H55.84M28.94,8.44H27.25M55.84,9.66V7.22M27.25,9.66V7.22" style="vector-effect: non-scaling-stroke; stroke-width: 1px; stroke: rgb(5, 47, 41); stroke-opacity: 1; fill: rgb(1, 133, 113); fill-opacity: 1;"/></g></g></g><g class="overplot"/><path class="xlines-above crisp" d="M104,370.5H270" style="fill: none; stroke-width: 1px; stroke: rgb(0, 0, 0); stroke-opacity: 1;"/><path class="ylines-above crisp" d="M104.5,100V370" style="fill: none; stroke-width: 1px; stroke: rgb(0, 0, 0); stroke-opacity: 1;"/><g class="overlines-above"/><g class="xaxislayer-above"><g class="xtick"><text text-anchor="middle" x="0" y="385.4" transform="translate(113.25,0)" style="font-family: 'Times New Roman'; font-size: 12px; fill: rgb(42, 63, 95); fill-opacity: 1; white-space: pre; opacity: 1;">1</text></g><g class="xtick"><text text-anchor="middle" x="0" y="385.4" style="font-family: 'Times New Roman'; font-size: 12px; fill: rgb(42, 63, 95); fill-opacity: 1; white-space: pre; opacity: 1;" transform="translate(187.5,0)">0.5</text></g><g class="xtick"><text text-anchor="middle" x="0" y="385.4" style="font-family: 'Times New Roman'; font-size: 12px; fill: rgb(42, 63, 95); fill-opacity: 1; white-space: pre; opacity: 1;" transform="translate(261.75,0)">0</text></g></g><g class="yaxislayer-above"><g class="ytick"><text text-anchor="end" x="102" y="3.5" transform="translate(0,361.56)" style="font-family: 'Times New Roman'; font-size: 10px; fill: rgb(42, 63, 95); fill-opacity: 1; white-space: pre; opacity: 1;">DAKRNSKSL</text></g><g class="ytick"><text text-anchor="end" x="102" y="3.5" transform="translate(0,344.69)" style="font-family: 'Times New Roman'; font-size: 10px; fill: rgb(42, 63, 95); fill-opacity: 1; white-space: pre; opacity: 1;">EIDVSEVKT</text></g><g class="ytick"><text text-anchor="end" x="102" y="3.5" transform="translate(0,327.81)" style="font-family: 'Times New Roman'; font-size: 10px; fill: rgb(42, 63, 95); fill-opacity: 1; white-space: pre; opacity: 1;">ATKRYPGVM</text></g><g class="ytick"><text text-anchor="end" x="102" y="3.5" transform="translate(0,310.94)" style="font-family: 'Times New Roman'; font-size: 10px; fill: rgb(42, 63, 95); fill-opacity: 1; white-space: pre; opacity: 1;">AAEQRRSTI</text></g><g class="ytick"><text text-anchor="end" x="102" y="3.5" transform="translate(0,294.06)" style="font-family: 'Times New Roman'; font-size: 10px; fill: rgb(42, 63, 95); fill-opacity: 1; white-space: pre; opacity: 1;">ETLNEYKQL</text></g><g class="ytick"><text text-anchor="end" x="102" y="3.5" transform="translate(0,277.19)" style="font-family: 'Times New Roman'; font-size: 10px; fill: rgb(42, 63, 95); fill-opacity: 1; white-space: pre; opacity: 1;">SLLMWITQC</text></g><g class="ytick"><text text-anchor="end" x="102" y="3.5" transform="translate(0,260.31)" style="font-family: 'Times New Roman'; font-size: 10px; fill: rgb(42, 63, 95); fill-opacity: 1; white-space: pre; opacity: 1;">EAAGIGILTV</text></g><g class="ytick"><text text-anchor="end" x="102" y="3.5" transform="translate(0,243.44)" style="font-family: 'Times New Roman'; font-size: 10px; fill: rgb(42, 63, 95); fill-opacity: 1; white-space: pre; opacity: 1;">RGPGRAFVTI</text></g><g class="ytick"><text text-anchor="end" x="102" y="3.5" transform="translate(0,226.56)" style="font-family: 'Times New Roman'; font-size: 10px; fill: rgb(42, 63, 95); fill-opacity: 1; white-space: pre; opacity: 1;">RQISQDVKL</text></g><g class="ytick"><text text-anchor="end" x="102" y="3.5" transform="translate(0,209.69)" style="font-family: 'Times New Roman'; font-size: 10px; fill: rgb(42, 63, 95); fill-opacity: 1; white-space: pre; opacity: 1;">AAGIGILTV</text></g><g class="ytick"><text text-anchor="end" x="102" y="3.5" transform="translate(0,192.81)" style="font-family: 'Times New Roman'; font-size: 10px; fill: rgb(42, 63, 95); fill-opacity: 1; white-space: pre; opacity: 1;">VLRDDLLEA</text></g><g class="ytick"><text text-anchor="end" x="102" y="3.5" transform="translate(0,175.94)" style="font-family: 'Times New Roman'; font-size: 10px; fill: rgb(42, 63, 95); fill-opacity: 1; white-space: pre; opacity: 1;">ILKEPVHGV</text></g><g class="ytick"><text text-anchor="end" x="102" y="3.5" transform="translate(0,159.06)" style="font-family: 'Times New Roman'; font-size: 10px; fill: rgb(42, 63, 95); fill-opacity: 1; white-space: pre; opacity: 1;">CINGVCWTV</text></g><g class="ytick"><text text-anchor="end" x="102" y="3.5" transform="translate(0,142.19)" style="font-family: 'Times New Roman'; font-size: 10px; fill: rgb(42, 63, 95); fill-opacity: 1; white-space: pre; opacity: 1;">LLFGYPVYV</text></g><g class="ytick"><text text-anchor="end" x="102" y="3.5" transform="translate(0,125.31)" style="font-family: 'Times New Roman'; font-size: 10px; fill: rgb(42, 63, 95); fill-opacity: 1; white-space: pre; opacity: 1;">ALWGFFPVL</text></g><g class="ytick"><text text-anchor="end" x="102" y="3.5" transform="translate(0,108.44)" style="font-family: 'Times New Roman'; font-size: 10px; fill: rgb(42, 63, 95); fill-opacity: 1; white-space: pre; opacity: 1;">FLPSDFFPSV</text></g></g><g class="overaxes-above"/></g></g><g class="polarlayer"/><g class="ternarylayer"/><g class="geolayer"/><g class="funnelarealayer"/><g class="pielayer"/><g class="iciclelayer"/><g class="treemaplayer"/><g class="sunburstlayer"/><g class="glimages"/><defs id="topdefs-8ffcdf"><g class="clips"/></defs><g class="layer-above"><g class="imagelayer"/><g class="shapelayer"/></g><g class="infolayer"><g class="g-gtitle"/><g class="g-xtitle"><text class="xtitle" x="187.5" y="413.20625" text-anchor="middle" style="font-family: 'Times New Roman'; font-size: 14px; fill: rgb(42, 63, 95); opacity: 1; font-weight: normal; white-space: pre;">Vinardo</text></g><g class="g-ytitle" transform="translate(0.7998046875,0)"><text class="ytitle" transform="rotate(-90,12.200000000000003,235)" x="12.200000000000003" y="235" text-anchor="middle" style="font-family: 'Times New Roman'; font-size: 14px; fill: rgb(42, 63, 95); opacity: 1; font-weight: normal; white-space: pre;">Peptide</text></g></g></svg>