<svg class="main-svg" xmlns="http://www.w3.org/2000/svg" xmlns:xlink="http://www.w3.org/1999/xlink" width="350" height="450" style="" viewBox="0 0 350 450"><rect x="0" y="0" width="350" height="450" style="fill: rgb(0, 0, 0); fill-opacity: 0;"/><defs id="defs-766ca8"><g class="clips"><clipPath id="clip766ca8xyplot" class="plotclip"><rect width="165" height="270"/></clipPath><clipPath class="axesclip" id="clip766ca8x"><rect x="105" y="0" width="165" height="450"/></clipPath><clipPath class="axesclip" id="clip766ca8y"><rect x="0" y="100" width="350" height="270"/></clipPath><clipPath class="axesclip" id="clip766ca8xy"><rect x="105" y="100" width="165" height="270"/></clipPath></g><g class="gradients"/><g class="patterns"/></defs><g class="bglayer"><rect class="bg" x="105" y="100" width="165" height="270" style="fill: rgb(0, 0, 0); fill-opacity: 0; stroke-width: 0;"/></g><g class="layer-below"><g class="imagelayer"/><g class="shapelayer"/></g><g class="cartesianlayer"><g class="subplot xy"><g class="layer-subplot"><g class="shapelayer"/><g class="imagelayer"/></g><g class="gridlayer"><g class="x"><path class="xgrid crisp" transform="translate(113.25,0)" d="M0,100v270" style="stroke: rgb(255, 255, 255); stroke-opacity: 1; stroke-width: 1px;"/><path class="xgrid crisp" transform="translate(187.5,0)" d="M0,100v270" style="stroke: rgb(255, 255, 255); stroke-opacity: 1; stroke-width: 1px;"/></g><g class="y"/></g><g class="zerolinelayer"><path class="xzl zl crisp" transform="translate(261.75,0)" d="M0,100v270" style="stroke: rgb(255, 255, 255); stroke-opacity: 1; stroke-width: 2px;"/></g><path class="xlines-below"/><path class="ylines-below"/><g class="overlines-below"/><g class="xaxislayer-below"/><g class="yaxislayer-below"/><g class="overaxes-below"/><g class="plot" transform="translate(105,100)" clip-path="url(#clip766ca8xyplot)"><g class="boxlayer mlayer"><g class="trace boxes" style="opacity: 1;"><path class="box" d="M155.88,267.66V255.47M155.88,267.66V255.47H155.88V267.66ZM155.88,261.56H155.88M155.88,261.56H155.88M155.88,262.78V260.34M155.88,262.78V260.34" style="vector-effect: non-scaling-stroke; stroke-width: 1px; stroke: rgb(89, 52, 14); stroke-opacity: 1; fill: rgb(166, 97, 26); fill-opacity: 1;"/></g><g class="trace boxes" style="opacity: 1;"><path class="box" d="M156.75,250.78V238.59M156.75,250.78V238.59H156.75V250.78ZM156.75,244.69H156.75M156.75,244.69H156.75M156.75,245.91V243.47M156.75,245.91V243.47" style="vector-effect: non-scaling-stroke; stroke-width: 1px; stroke: rgb(89, 52, 14); stroke-opacity: 1; fill: rgb(166, 97, 26); fill-opacity: 1;"/></g><g class="trace boxes" style="opacity: 1;"><path class="box" d="M154.16,233.91V221.72M154.16,233.91V221.72H154.16V233.91ZM154.16,227.81H154.16M154.16,227.81H154.16M154.16,229.03V226.59M154.16,229.03V226.59" style="vector-effect: non-scaling-stroke; stroke-width: 1px; stroke: rgb(89, 52, 14); stroke-opacity: 1; fill: rgb(166, 97, 26); fill-opacity: 1;"/></g><g class="trace boxes" style="opacity: 1;"><path class="box" d="M138.62,217.03V204.84M138.62,217.03V204.84H138.62V217.03ZM138.62,210.94H138.62M138.62,210.94H138.62M138.62,212.16V209.72M138.62,212.16V209.72" style="vector-effect: non-scaling-stroke; stroke-width: 1px; stroke: rgb(89, 52, 14); stroke-opacity: 1; fill: rgb(166, 97, 26); fill-opacity: 1;"/></g><g class="trace boxes" style="opacity: 1;"><path class="box" d="M128.64,200.16V187.97M128.64,200.16V187.97H128.64V200.16ZM128.64,194.06H128.64M128.64,194.06H128.64M128.64,195.28V192.84M128.64,195.28V192.84" style="vector-effect: non-scaling-stroke; stroke-width: 1px; stroke: rgb(89, 52, 14); stroke-opacity: 1; fill: rgb(166, 97, 26); fill-opacity: 1;"/></g><g class="trace boxes" style="opacity: 1;"><path class="box" d="M13.68,183.28V171.09M14.96,183.28V171.09H11.97V183.28ZM14.96,177.19H16.19M11.97,177.19H9.77M16.19,178.41V175.97M9.77,178.41V175.97" style="vector-effect: non-scaling-stroke; stroke-width: 1px; stroke: rgb(117, 100, 56); stroke-opacity: 1; fill: rgb(223, 194, 125); fill-opacity: 1;"/></g><g class="trace boxes" style="opacity: 1;"><path class="box" d="M47.46,166.41V154.22M49.12,166.41V154.22H42.11V166.41ZM49.12,160.31H49.67M42.11,160.31H40.33M49.67,161.53V159.09M40.33,161.53V159.09" style="vector-effect: non-scaling-stroke; stroke-width: 1px; stroke: rgb(117, 100, 56); stroke-opacity: 1; fill: rgb(223, 194, 125); fill-opacity: 1;"/></g><g class="trace boxes" style="opacity: 1;"><path class="box" d="M133.27,149.53V137.34M134.88,149.53V137.34H128.48V149.53ZM134.88,143.44H137.03M128.48,143.44H126.46M137.03,144.66V142.22M126.46,144.66V142.22" style="vector-effect: non-scaling-stroke; stroke-width: 1px; stroke: rgb(117, 100, 56); stroke-opacity: 1; fill: rgb(223, 194, 125); fill-opacity: 1;"/></g><g class="trace boxes" style="opacity: 1;"><path class="box" d="M106.02,132.66V120.47M106.02,132.66V120.47H106.02V132.66ZM106.02,126.56H106.02M106.02,126.56H106.02M106.02,127.78V125.34M106.02,127.78V125.34" style="vector-effect: non-scaling-stroke; stroke-width: 1px; stroke: rgb(117, 100, 56); stroke-opacity: 1; fill: rgb(223, 194, 125); fill-opacity: 1;"/></g><g class="trace boxes" style="opacity: 1;"><path class="box" d="M78.6,115.78V103.59M81.28,115.78V103.59H77.6V115.78ZM81.28,109.69H83.31M77.6,109.69H76.74M83.31,110.91V108.47M76.74,110.91V108.47" style="vector-effect: non-scaling-stroke; stroke-width: 1px; stroke: rgb(54, 91, 85); stroke-opacity: 1; fill: rgb(128, 205, 193); fill-opacity: 1;"/></g><g class="trace boxes" style="opacity: 1;"><path class="box" d="M21.28,98.91V86.72M21.28,98.91V86.72H21.28V98.91ZM21.28,92.81H21.28M21.28,92.81H21.28M21.28,94.03V91.59M21.28,94.03V91.59" style="vector-effect: non-scaling-stroke; stroke-width: 1px; stroke: rgb(54, 91, 85); stroke-opacity: 1; fill: rgb(128, 205, 193); fill-opacity: 1;"/></g><g class="trace boxes" style="opacity: 1;"><path class="box" d="M10.11,82.03V69.84M14.74,82.03V69.84H9.11V82.03ZM14.74,75.94H16.68M9.11,75.94H9.03M16.68,77.16V74.72M9.03,77.16V74.72" style="vector-effect: non-scaling-stroke; stroke-width: 1px; stroke: rgb(54, 91, 85); stroke-opacity: 1; fill: rgb(128, 205, 193); fill-opacity: 1;"/></g><g class="trace boxes" style="opacity: 1;"><path class="box" d="M33.11,65.16V52.97M34.67,65.16V52.97H31.54V65.16ZM34.67,59.06H34.67M31.54,59.06H31.54M34.67,60.28V57.84M31.54,60.28V57.84" style="vector-effect: non-scaling-stroke; stroke-width: 1px; stroke: rgb(54, 91, 85); stroke-opacity: 1; fill: rgb(128, 205, 193); fill-opacity: 1;"/></g><g class="trace boxes" style="opacity: 1;"><path class="box" d="M11.56,48.28V36.09M14.45,48.28V36.09H9.86V48.28ZM14.45,42.19H17.02M9.86,42.19H8.25M17.02,43.41V40.97M8.25,43.41V40.97" style="vector-effect: non-scaling-stroke; stroke-width: 1px; stroke: rgb(5, 47, 41); stroke-opacity: 1; fill: rgb(1, 133, 113); fill-opacity: 1;"/></g><g class="trace boxes" style="opacity: 1;"><path class="box" d="M15.95,31.41V19.22M16.98,31.41V19.22H14.75V31.41ZM16.98,25.31H18.46M14.75,25.31H13.68M18.46,26.53V24.09M13.68,26.53V24.09" style="vector-effect: non-scaling-stroke; stroke-width: 1px; stroke: rgb(5, 47, 41); stroke-opacity: 1; fill: rgb(1, 133, 113); fill-opacity: 1;"/></g><g class="trace boxes" style="opacity: 1;"><path class="box" d="M16.88,14.53V2.34M17.88,14.53V2.34H16.41V14.53ZM17.88,8.44H18.51M16.41,8.44H15.24M18.51,9.66V7.22M15.24,9.66V7.22" style="vector-effect: non-scaling-stroke; stroke-width: 1px; stroke: rgb(5, 47, 41); stroke-opacity: 1; fill: rgb(1, 133, 113); fill-opacity: 1;"/></g></g></g><g class="overplot"/><path class="xlines-above crisp" d="M104,370.5H270" style="fill: none; stroke-width: 1px; stroke: rgb(0, 0, 0); stroke-opacity: 1;"/><path class="ylines-above crisp" d="M104.5,100V370" style="fill: none; stroke-width: 1px; stroke: rgb(0, 0, 0); stroke-opacity: 1;"/><g class="overlines-above"/><g class="xaxislayer-above"><g class="xtick"><text text-anchor="middle" x="0" y="385.4" transform="translate(113.25,0)" style="font-family: 'Times New Roman'; font-size: 12px; fill: rgb(42, 63, 95); fill-opacity: 1; white-space: pre; opacity: 1;">1</text></g><g class="xtick"><text text-anchor="middle" x="0" y="385.4" style="font-family: 'Times New Roman'; font-size: 12px; fill: rgb(42, 63, 95); fill-opacity: 1; white-space: pre; opacity: 1;" transform="translate(187.5,0)">0.5</text></g><g class="xtick"><text text-anchor="middle" x="0" y="385.4" style="font-family: 'Times New Roman'; font-size: 12px; fill: rgb(42, 63, 95); fill-opacity: 1; white-space: pre; opacity: 1;" transform="translate(261.75,0)">0</text></g></g><g class="yaxislayer-above"><g class="ytick"><text text-anchor="end" x="102" y="3.5" transform="translate(0,361.56)" style="font-family: 'Times New Roman'; font-size: 10px; fill: rgb(42, 63, 95); fill-opacity: 1; white-space: pre; opacity: 1;">DAKRNSKSL</text></g><g class="ytick"><text text-anchor="end" x="102" y="3.5" transform="translate(0,344.69)" style="font-family: 'Times New Roman'; font-size: 10px; fill: rgb(42, 63, 95); fill-opacity: 1; white-space: pre; opacity: 1;">EIDVSEVKT</text></g><g class="ytick"><text text-anchor="end" x="102" y="3.5" transform="translate(0,327.81)" style="font-family: 'Times New Roman'; font-size: 10px; fill: rgb(42, 63, 95); fill-opacity: 1; white-space: pre; opacity: 1;">ATKRYPGVM</text></g><g class="ytick"><text text-anchor="end" x="102" y="3.5" transform="translate(0,310.94)" style="font-family: 'Times New Roman'; font-size: 10px; fill: rgb(42, 63, 95); fill-opacity: 1; white-space: pre; opacity: 1;">AAEQRRSTI</text></g><g class="ytick"><text text-anchor="end" x="102" y="3.5" transform="translate(0,294.06)" style="font-family: 'Times New Roman'; font-size: 10px; fill: rgb(42, 63, 95); fill-opacity: 1; white-space: pre; opacity: 1;">ETLNEYKQL</text></g><g class="ytick"><text text-anchor="end" x="102" y="3.5" transform="translate(0,277.19)" style="font-family: 'Times New Roman'; font-size: 10px; fill: rgb(42, 63, 95); fill-opacity: 1; white-space: pre; opacity: 1;">SLLMWITQC</text></g><g class="ytick"><text text-anchor="end" x="102" y="3.5" transform="translate(0,260.31)" style="font-family: 'Times New Roman'; font-size: 10px; fill: rgb(42, 63, 95); fill-opacity: 1; white-space: pre; opacity: 1;">EAAGIGILTV</text></g><g class="ytick"><text text-anchor="end" x="102" y="3.5" transform="translate(0,243.44)" style="font-family: 'Times New Roman'; font-size: 10px; fill: rgb(42, 63, 95); fill-opacity: 1; white-space: pre; opacity: 1;">RGPGRAFVTI</text></g><g class="ytick"><text text-anchor="end" x="102" y="3.5" transform="translate(0,226.56)" style="font-family: 'Times New Roman'; font-size: 10px; fill: rgb(42, 63, 95); fill-opacity: 1; white-space: pre; opacity: 1;">RQISQDVKL</text></g><g class="ytick"><text text-anchor="end" x="102" y="3.5" transform="translate(0,209.69)" style="font-family: 'Times New Roman'; font-size: 10px; fill: rgb(42, 63, 95); fill-opacity: 1; white-space: pre; opacity: 1;">AAGIGILTV</text></g><g class="ytick"><text text-anchor="end" x="102" y="3.5" transform="translate(0,192.81)" style="font-family: 'Times New Roman'; font-size: 10px; fill: rgb(42, 63, 95); fill-opacity: 1; white-space: pre; opacity: 1;">VLRDDLLEA</text></g><g class="ytick"><text text-anchor="end" x="102" y="3.5" transform="translate(0,175.94)" style="font-family: 'Times New Roman'; font-size: 10px; fill: rgb(42, 63, 95); fill-opacity: 1; white-space: pre; opacity: 1;">ILKEPVHGV</text></g><g class="ytick"><text text-anchor="end" x="102" y="3.5" transform="translate(0,159.06)" style="font-family: 'Times New Roman'; font-size: 10px; fill: rgb(42, 63, 95); fill-opacity: 1; white-space: pre; opacity: 1;">CINGVCWTV</text></g><g class="ytick"><text text-anchor="end" x="102" y="3.5" transform="translate(0,142.19)" style="font-family: 'Times New Roman'; font-size: 10px; fill: rgb(42, 63, 95); fill-opacity: 1; white-space: pre; opacity: 1;">LLFGYPVYV</text></g><g class="ytick"><text text-anchor="end" x="102" y="3.5" transform="translate(0,125.31)" style="font-family: 'Times New Roman'; font-size: 10px; fill: rgb(42, 63, 95); fill-opacity: 1; white-space: pre; opacity: 1;">ALWGFFPVL</text></g><g class="ytick"><text text-anchor="end" x="102" y="3.5" transform="translate(0,108.44)" style="font-family: 'Times New Roman'; font-size: 10px; fill: rgb(42, 63, 95); fill-opacity: 1; white-space: pre; opacity: 1;">FLPSDFFPSV</text></g></g><g class="overaxes-above"/></g></g><g class="polarlayer"/><g class="ternarylayer"/><g class="geolayer"/><g class="funnelarealayer"/><g class="pielayer"/><g class="iciclelayer"/><g class="treemaplayer"/><g class="sunburstlayer"/><g class="glimages"/><defs id="topdefs-766ca8"><g class="clips"/></defs><g class="layer-above"><g class="imagelayer"/><g class="shapelayer"/></g><g class="infolayer"><g class="g-gtitle"/><g class="g-xtitle"><text class="xtitle" x="187.5" y="413.20625" text-anchor="middle" style="font-family: 'Times New Roman'; font-size: 14px; fill: rgb(42, 63, 95); opacity: 1; font-weight: normal; white-space: pre;">3pHLA-score</text></g><g class="g-ytitle" transform="translate(0.7998046875,0)"><text class="ytitle" transform="rotate(-90,12.200000000000003,235)" x="12.200000000000003" y="235" text-anchor="middle" style="font-family: 'Times New Roman'; font-size: 14px; fill: rgb(42, 63, 95); opacity: 1; font-weight: normal; white-space: pre;">Peptide</text></g></g></svg>